<svg xmlns="http://www.w3.org/2000/svg" width="100" height="30" viewBox="0 0 100 30">
  <g fill="#a50064">
    <path d="M0 15C0 6.716 6.716 0 15 0h70c8.284 0 15 6.716 15 15v0c0 8.284-6.716 15-15 15h-70C6.716 30 0 23.284 0 15z" opacity=".1"/>
    <path d="M16.5 8.5c-3.59 0-6.5 2.91-6.5 6.5 0 3.59 2.91 6.5 6.5 6.5 1.795 0 3.42-.727 4.596-1.904l-2.122-2.121A3.482 3.482 0 0116.5 18.5c-1.93 0-3.5-1.57-3.5-3.5s1.57-3.5 3.5-3.5 3.5 1.57 3.5 3.5h3c0-3.59-2.91-6.5-6.5-6.5z"/>
    <path d="M30.5 8.5c-3.59 0-6.5 2.91-6.5 6.5 0 3.59 2.91 6.5 6.5 6.5 1.795 0 3.42-.727 4.596-1.904l-2.122-2.121A3.482 3.482 0 0130.5 18.5c-1.93 0-3.5-1.57-3.5-3.5s1.57-3.5 3.5-3.5 3.5 1.57 3.5 3.5h3c0-3.59-2.91-6.5-6.5-6.5z"/>
    <path d="M50 8h-4c-1.1 0-2 .9-2 2v12h3v-5h3c2.21 0 4-1.79 4-4s-1.79-4-4-4zm0 5h-3v-2h3c.55 0 1 .45 1 1s-.45 1-1 1z"/>
    <path d="M62 8h3v14h-3zm9 0h-4c-1.1 0-2 .9-2 2v12h3v-5h3c2.21 0 4-1.79 4-4s-1.79-4-4-4zm0 5h-3v-2h3c.55 0 1 .45 1 1s-.45 1-1 1z"/>
  </g>
</svg> 