<svg xmlns="http://www.w3.org/2000/svg" width="100" height="30" viewBox="0 0 100 30">
  <g>
    <path d="M0 15C0 6.716 6.716 0 15 0h70c8.284 0 15 6.716 15 15v0c0 8.284-6.716 15-15 15h-70C6.716 30 0 23.284 0 15z" fill="#f7f8f9"/>
    <path d="M12 8l4 14h3l2-7 2 7h3l4-14h-3l-2.5 9-2.5-9h-2l-2.5 9-2.5-9h-3z" fill="#1a1f71"/>
    <path d="M38 8h2.5l7.5 14h-3l-1.5-3h-7l-1.5 3h-3l6-14zm4.3 8l-2.3-5-2.3 5h4.6z" fill="#4b4b4b"/>
    <path d="M53 8h3v14h-3v-14zm5 0h7c2.2 0 4 1.8 4 4 0 1.5-.8 2.8-2 3.4 1.2.6 2 1.9 2 3.4 0 2.2-1.8 4-4 4h-7v-15zm7 6c.6 0 1-.4 1-1s-.4-1-1-1h-4v2h4zm0 6c.6 0 1-.4 1-1s-.4-1-1-1h-4v2h4z" fill="#f37021"/>
    <path d="M73 8h3l4 6 4-6h3v14h-3v-8l-4 5-4-5v8h-3v-14z" fill="#fcb040"/>
  </g>
</svg> 